<svg version="1.2" xmlns="http://www.w3.org/2000/svg" viewBox="0 0 213 62" width="213" height="62"><defs><clipPath clipPathUnits="userSpaceOnUse" id="cp1"><path d="m-1244-1969h2732v22374h-2732z"/></clipPath></defs><style></style><g clip-path="url(#cp1)"><path fill-rule="evenodd" d="m31.9 60.2q-6.5 0-12-2.3-5.5-2.3-9.5-6.2-4-3.9-6.3-9.2-2.3-5.3-2.3-11.3v-0.2q0-6 2.3-11.3 2.3-5.3 6.3-9.3 4.1-4 9.7-6.2 5.5-2.3 12-2.3 6.5 0 12 2.3 5.5 2.2 9.5 6.2 4 3.9 6.3 9.2 2.3 5.3 2.3 11.3v0.1q0 6-2.3 11.4-2.2 5.3-6.3 9.3-4.1 3.9-9.7 6.2-5.5 2.3-12 2.3zm0.1-14q3.3 0 5.9-1.2 2.7-1.2 4.5-3.3 1.9-2 2.9-4.7 1.1-2.8 1.1-5.8v-0.2q0-3-1.1-5.7-1-2.8-3-4.9-1.9-2-4.5-3.3-2.7-1.2-5.9-1.2-3.2 0-5.8 1.2-2.6 1.2-4.5 3.2-1.9 2.1-2.9 4.8-1 2.7-1 5.8v0.1q0 3.1 1 5.8 1.1 2.7 2.9 4.8 1.9 2.1 4.6 3.3 2.6 1.3 5.8 1.3zm62.4 13.8q-7.6 0-14.4-2.3-6.7-2.4-11.9-7l8.6-10.4q8.4 6.7 18.2 6.7 3.1 0 4.8-1 1.6-1 1.6-2.8v-0.2q0-0.8-0.4-1.5-0.4-0.7-1.5-1.3-1-0.7-2.8-1.3-1.8-0.6-4.7-1.2-4.5-1.1-8.4-2.3-3.8-1.2-6.7-3.2-2.8-2-4.4-4.9-1.7-2.9-1.7-7.2v-0.2q0-3.9 1.5-7.2 1.5-3.2 4.3-5.6 2.9-2.4 6.9-3.8 4-1.3 9-1.3 7.2 0 12.9 1.9 5.6 1.9 10.2 5.6l-7.8 11q-3.8-2.7-7.9-4.1-4-1.4-7.8-1.4-2.8 0-4.2 1-1.4 1.1-1.4 2.6v0.2q0 0.9 0.5 1.6 0.4 0.8 1.5 1.4 1.1 0.6 2.9 1.2 1.9 0.6 4.8 1.2 4.8 1 8.7 2.4 3.9 1.4 6.6 3.4 2.7 2 4.2 4.9 1.4 2.8 1.4 6.7v0.2q0 4.3-1.6 7.7-1.7 3.3-4.6 5.7-3 2.3-7.1 3.6-4.2 1.2-9.3 1.2zm60.4 0.2q-6.5 0-12-2.3-5.6-2.3-9.6-6.2-4-3.9-6.3-9.2-2.3-5.3-2.3-11.3v-0.2q0-6 2.3-11.3 2.3-5.3 6.4-9.3 4.1-4 9.6-6.2 5.5-2.3 12-2.3 6.5 0 12.1 2.3 5.5 2.2 9.5 6.2 4 3.9 6.3 9.2 2.3 5.3 2.3 11.3v0.1q0 6-2.3 11.4-2.3 5.3-6.4 9.3-4.1 3.9-9.6 6.2-5.5 2.3-12 2.3zm0.1-14q3.2 0 5.9-1.2 2.6-1.2 4.5-3.3 1.8-2 2.9-4.7 1-2.8 1-5.8v-0.2q0-3-1-5.7-1.1-2.8-3-4.9-1.9-2-4.6-3.3-2.6-1.2-5.9-1.2-3.2 0-5.8 1.2-2.6 1.2-4.5 3.2-1.9 2.1-2.9 4.8-1 2.7-1 5.8v0.1q0 3.1 1.1 5.8 1 2.7 2.9 4.8 1.9 2.1 4.5 3.3 2.7 1.3 5.9 1.3zm40.6-43.2h15.6v56.1h-15.6z"/></g></svg>